<svg xmlns="http://www.w3.org/2000/svg" width="900" height="280" viewBox="0 0 900 280">
  <defs>
    <pattern id="grid" width="36" height="36" patternUnits="userSpaceOnUse">
      <path d="M 36 0 L 0 0 0 36" fill="none" stroke="#1f2937" stroke-width="0.6"/>
    </pattern>
    <linearGradient id="fadeRight" x1="0" y1="0" x2="1" y2="0">
      <stop offset="0%" stop-color="#0D1117" stop-opacity="1"/>
      <stop offset="100%" stop-color="#0D1117" stop-opacity="0.2"/>
    </linearGradient>
    <linearGradient id="accentLine" x1="0" y1="0" x2="0" y2="1">
      <stop offset="0%" stop-color="#58A6FF"/>
      <stop offset="100%" stop-color="#1F6FEB"/>
    </linearGradient>
    <linearGradient id="circleFade" x1="0" y1="0" x2="1" y2="1">
      <stop offset="0%" stop-color="#1F6FEB" stop-opacity="0.15"/>
      <stop offset="100%" stop-color="#58A6FF" stop-opacity="0.03"/>
    </linearGradient>
  </defs>

  <rect width="900" height="280" fill="#0D1117"/>
  <rect width="900" height="280" fill="url(#grid)" opacity="0.25"/>
  <ellipse cx="810" cy="140" rx="180" ry="160" fill="#1F6FEB" opacity="0.04"/>

  <circle cx="800" cy="100" r="90" fill="none" stroke="#1F6FEB" stroke-width="0.8" opacity="0.2"/>
  <circle cx="800" cy="100" r="60" fill="none" stroke="#58A6FF" stroke-width="0.5" opacity="0.15"/>
  <circle cx="800" cy="100" r="30" fill="url(#circleFade)" stroke="#58A6FF" stroke-width="0.5" opacity="0.3"/>
  <circle cx="800" cy="100" r="5" fill="#58A6FF" opacity="0.7"/>

  <line x1="800" y1="30" x2="800" y2="60" stroke="#58A6FF" stroke-width="0.8" opacity="0.3"/>
  <line x1="800" y1="140" x2="800" y2="170" stroke="#58A6FF" stroke-width="0.8" opacity="0.3"/>
  <line x1="730" y1="100" x2="760" y2="100" stroke="#58A6FF" stroke-width="0.8" opacity="0.3"/>
  <line x1="840" y1="100" x2="870" y2="100" stroke="#58A6FF" stroke-width="0.8" opacity="0.3"/>

  <rect x="56" y="64" width="3" height="152" rx="2" fill="url(#accentLine)"/>
  <circle cx="57.5" cy="60" r="4" fill="#58A6FF"/>

  <text x="80" y="128" font-family="'Courier New', Courier, monospace" font-size="46" font-weight="700" fill="#FFFFFF" letter-spacing="3" opacity="0.97">GOKULA KANNAN</text>
  <rect x="80" y="136" width="360" height="2" rx="1" fill="url(#accentLine)" opacity="0.8"/>
  <text x="82" y="168" font-family="'Courier New', Courier, monospace" font-size="17" fill="#58A6FF" letter-spacing="5">TECHNICAL ARCHITECT</text>
  <text x="83" y="196" font-family="'Courier New', Courier, monospace" font-size="13" fill="#8b949e" letter-spacing="1">// developer-geekay · 9+ years · OutSystems · Fintech</text>

  <rect x="600" y="0" width="300" height="280" fill="url(#fadeRight)"/>

  <line x1="56" y1="226" x2="844" y2="226" stroke="#21262d" stroke-width="1"/>

  <text x="80" y="252" font-family="'Courier New', Courier, monospace" font-size="11" fill="#3d444d" letter-spacing="2">EXP</text>
  <text x="80" y="268" font-family="'Courier New', Courier, monospace" font-size="13" fill="#58A6FF" letter-spacing="1">9+ YEARS</text>

  <line x1="200" y1="235" x2="200" y2="272" stroke="#21262d" stroke-width="1"/>

  <text x="220" y="252" font-family="'Courier New', Courier, monospace" font-size="11" fill="#3d444d" letter-spacing="2">SPECIALTY</text>
  <text x="220" y="268" font-family="'Courier New', Courier, monospace" font-size="13" fill="#58A6FF" letter-spacing="1">OUTSYSTEMS ARCHITECTURE</text>

  <line x1="530" y1="235" x2="530" y2="272" stroke="#21262d" stroke-width="1"/>

  <text x="550" y="252" font-family="'Courier New', Courier, monospace" font-size="11" fill="#3d444d" letter-spacing="2">DOMAINS</text>
  <text x="550" y="268" font-family="'Courier New', Courier, monospace" font-size="13" fill="#58A6FF" letter-spacing="1">FINTECH · BANKING · ENTERPRISES</text>
</svg>
